<svg xmlns="http://www.w3.org/2000/svg" xmlns:xlink="http://www.w3.org/1999/xlink" width="500" zoomAndPan="magnify" viewBox="0 0 375 374.999991" height="500" preserveAspectRatio="xMidYMid meet" version="1.0"><defs><clipPath id="08c96e8cd5"><path d="M 33 13.5 L 334 13.5 L 334 361.5 L 33 361.5 Z M 33 13.5 " clip-rule="nonzero"/></clipPath></defs><g clip-path="url(#08c96e8cd5)"><path fill="#1a1a1a" d="M 135.597656 59.824219 L 135.597656 26.988281 C 135.597656 19.511719 129.589844 13.5 122.117188 13.5 L 33.035156 13.5 L 33.035156 256.617188 L 228.933594 57.476562 L 257.503906 57.476562 L 33.035156 285.128906 L 33.035156 344.128906 C 33.035156 353.730469 40.800781 361.5 50.394531 361.5 L 134.867188 361.5 L 134.867188 327.566406 L 158.015625 305.945312 L 212.011719 361.5 L 308.203125 361.5 C 330.621094 361.5 341.828125 334.457031 326.078125 318.550781 L 226.589844 218.066406 C 217.359375 208.757812 201.972656 210.003906 194.355469 220.703125 C 188.492188 228.984375 189.300781 240.273438 196.332031 247.601562 L 262.121094 315.984375 L 233.546875 315.984375 L 161.019531 251.925781 L 100.871094 306.75 L 100.871094 319.0625 L 76.257812 319.0625 L 76.257812 298.25 L 323.734375 53.960938 C 338.75 39.152344 328.273438 13.5 307.175781 13.5 L 210.472656 13.5 L 79.335938 152.394531 L 79.335938 57.476562 L 95.523438 57.476562 L 95.523438 93.757812 Z M 135.597656 59.824219 " fill-opacity="1" fill-rule="nonzero"/></g></svg>